<?xml version="1.0" encoding="utf-8"?>
<!-- Generator: Adobe Illustrator 18.1.1, SVG Export Plug-In . SVG Version: 6.00 Build 0)  -->
<svg version="1.1" id="Layer_1" xmlns="http://www.w3.org/2000/svg" xmlns:xlink="http://www.w3.org/1999/xlink" x="0px" y="0px"
	 viewBox="37 -17.9 121.2 70" enable-background="new 37 -17.9 121.2 70" xml:space="preserve">
<g>
	<circle fill="#21B1F9" cx="97.4" cy="42.9" r="9.2"/>
	<circle fill="none" stroke="#FFFFFF" stroke-width="8" stroke-miterlimit="10" cx="97.4" cy="42.9" r="9.2"/>
</g>
<g>
	<g opacity="0.3">
		<polygon points="97.6,33.3 107.7,23 102.7,23 		"/>
	</g>
	<g>
		<path fill="#F2F2F2" d="M157.4-17.9H37.8c-0.4,0-0.8,0.4-0.8,0.7V22c0,0.4,0.5,1,0.8,1h54.4c2.5,5.4,4.9,9.8,4.9,9.8
			c0.1,0.2,0.2,0.2,0.3,0.2c0.1,0,0.2,0,0.3-0.2c0,0,2.3-4.4,4.9-9.8h54.7c0.4,0,0.8-0.6,0.8-1v-39.2
			C158.2-17.6,157.7-17.9,157.4-17.9z"/>
	</g>
	<g>
		<path fill="#4D4D4D" d="M67.8-4.9c0,0.3,0,0.5-0.1,0.7c-0.1,0.2-0.2,0.4-0.4,0.6c-0.2,0.2-0.4,0.3-0.6,0.4C66.4-3.1,66.1-3,65.9-3
			h-3.3v-7h3.3c0.2,0,0.5,0.1,0.7,0.2c0.2,0.1,0.4,0.2,0.5,0.4c0.1,0.2,0.2,0.4,0.3,0.6c0.1,0.2,0.1,0.4,0.1,0.7
			c0,0.4-0.1,0.7-0.3,1C67-7,66.8-6.8,66.5-6.6c0.4,0.1,0.7,0.3,1,0.7C67.7-5.6,67.8-5.3,67.8-4.9z M63.1-9.6v2.8h2.6
			c0.2,0,0.4,0,0.5-0.1c0.2-0.1,0.3-0.2,0.4-0.3c0.1-0.1,0.2-0.3,0.3-0.5C67-7.9,67-8,67-8.2c0-0.2,0-0.4-0.1-0.5
			c-0.1-0.2-0.1-0.3-0.3-0.4c-0.1-0.1-0.2-0.2-0.4-0.3s-0.3-0.1-0.5-0.1H63.1z M67.3-4.9c0-0.2,0-0.4-0.1-0.5
			c-0.1-0.2-0.2-0.3-0.3-0.5c-0.1-0.1-0.3-0.2-0.4-0.3S66.1-6.4,66-6.4h-2.9v2.9h2.8c0.2,0,0.4,0,0.6-0.1c0.2-0.1,0.3-0.2,0.4-0.3
			c0.1-0.1,0.2-0.3,0.3-0.5C67.2-4.6,67.3-4.7,67.3-4.9z"/>
		<path fill="#4D4D4D" d="M72-7.7c-0.5,0-0.9,0.2-1.2,0.4c-0.3,0.3-0.6,0.6-0.7,1.1V-3h-0.5v-5.2H70v1.3c0.2-0.4,0.4-0.7,0.7-0.9
			C71-8,71.3-8.2,71.6-8.2c0.1,0,0.1,0,0.2,0c0.1,0,0.1,0,0.1,0L72-7.7L72-7.7z"/>
		<path fill="#4D4D4D" d="M75.6-2.9c-0.4,0-0.7-0.1-1-0.2c-0.3-0.1-0.6-0.3-0.8-0.6c-0.2-0.2-0.4-0.5-0.5-0.9
			c-0.1-0.3-0.2-0.7-0.2-1c0-0.4,0.1-0.7,0.2-1c0.1-0.3,0.3-0.6,0.5-0.8c0.2-0.2,0.5-0.4,0.8-0.6c0.3-0.1,0.6-0.2,1-0.2
			c0.4,0,0.7,0.1,1,0.2c0.3,0.1,0.6,0.3,0.8,0.6c0.2,0.2,0.4,0.5,0.5,0.8c0.1,0.3,0.2,0.7,0.2,1c0,0,0,0.1,0,0.1c0,0,0,0.1,0,0.1
			h-4.5c0,0.3,0.1,0.6,0.2,0.8c0.1,0.3,0.3,0.5,0.5,0.7c0.2,0.2,0.4,0.3,0.6,0.4c0.2,0.1,0.5,0.2,0.8,0.2c0.2,0,0.4,0,0.5-0.1
			c0.2,0,0.3-0.1,0.5-0.2c0.1-0.1,0.3-0.2,0.4-0.3c0.1-0.1,0.2-0.3,0.3-0.4l0.4,0.1c-0.1,0.2-0.2,0.4-0.3,0.5
			c-0.1,0.2-0.3,0.3-0.5,0.4S76.5-3.1,76.3-3C76.1-3,75.8-2.9,75.6-2.9z M77.6-5.8c0-0.3-0.1-0.6-0.2-0.8c-0.1-0.3-0.3-0.5-0.4-0.7
			c-0.2-0.2-0.4-0.3-0.6-0.4c-0.2-0.1-0.5-0.2-0.8-0.2c-0.3,0-0.5,0.1-0.8,0.2c-0.2,0.1-0.4,0.2-0.6,0.4c-0.2,0.2-0.3,0.4-0.4,0.7
			c-0.1,0.3-0.2,0.5-0.2,0.8C73.6-5.8,77.6-5.8,77.6-5.8z"/>
		<path fill="#4D4D4D" d="M79.7-9.4v-0.9h0.5v0.9H79.7z M79.7-3v-5.2h0.5V-3H79.7z"/>
		<path fill="#4D4D4D" d="M84.5-3.3c0,0-0.1,0-0.1,0.1c-0.1,0-0.1,0.1-0.2,0.1C84.1-3.1,84-3,83.8-3c-0.1,0-0.2,0-0.4,0
			c-0.1,0-0.3,0-0.4-0.1c-0.1,0-0.2-0.1-0.3-0.2c-0.1-0.1-0.2-0.2-0.2-0.3c-0.1-0.1-0.1-0.2-0.1-0.4v-3.9h-0.7v-0.4h0.7V-10h0.5v1.8
			h1.2v0.4h-1.2V-4c0,0.2,0.1,0.3,0.2,0.4c0.1,0.1,0.3,0.1,0.5,0.1c0.2,0,0.4,0,0.5-0.1c0.1-0.1,0.2-0.1,0.3-0.1L84.5-3.3z"/>
		<path fill="#4D4D4D" d="M88.1-2.9c-0.4,0-0.7-0.1-1-0.2c-0.3-0.1-0.6-0.3-0.8-0.6C86-4,85.8-4.3,85.7-4.6c-0.1-0.3-0.2-0.7-0.2-1
			c0-0.4,0.1-0.7,0.2-1C85.8-7,86-7.3,86.2-7.5c0.2-0.2,0.5-0.4,0.8-0.6c0.3-0.1,0.6-0.2,1-0.2c0.4,0,0.7,0.1,1,0.2
			c0.3,0.1,0.6,0.3,0.8,0.6c0.2,0.2,0.4,0.5,0.5,0.8c0.1,0.3,0.2,0.7,0.2,1c0,0,0,0.1,0,0.1s0,0.1,0,0.1H86c0,0.3,0.1,0.6,0.2,0.8
			c0.1,0.3,0.3,0.5,0.5,0.7c0.2,0.2,0.4,0.3,0.6,0.4c0.2,0.1,0.5,0.2,0.8,0.2c0.2,0,0.4,0,0.5-0.1c0.2,0,0.3-0.1,0.5-0.2
			c0.1-0.1,0.3-0.2,0.4-0.3c0.1-0.1,0.2-0.3,0.3-0.4l0.4,0.1C90.1-4,90-3.8,89.9-3.7c-0.1,0.2-0.3,0.3-0.5,0.4
			C89.2-3.2,89-3.1,88.8-3C88.5-3,88.3-2.9,88.1-2.9z M90.1-5.8c0-0.3-0.1-0.6-0.2-0.8c-0.1-0.3-0.3-0.5-0.4-0.7
			c-0.2-0.2-0.4-0.3-0.6-0.4c-0.2-0.1-0.5-0.2-0.8-0.2c-0.3,0-0.5,0.1-0.8,0.2c-0.2,0.1-0.4,0.2-0.6,0.4c-0.2,0.2-0.3,0.4-0.4,0.7
			C86.1-6.4,86-6.1,86-5.8C86-5.8,90.1-5.8,90.1-5.8z"/>
		<path fill="#4D4D4D" d="M99.5-8.9c-0.5-0.5-1.1-0.8-1.9-0.8c-0.7,0-1.2,0.1-1.5,0.4c-0.3,0.3-0.5,0.6-0.5,1.1c0,0.2,0,0.4,0.1,0.6
			c0.1,0.2,0.2,0.3,0.4,0.4c0.2,0.1,0.4,0.2,0.6,0.3c0.3,0.1,0.6,0.2,0.9,0.2c0.4,0.1,0.7,0.2,1,0.3c0.3,0.1,0.6,0.2,0.8,0.4
			c0.2,0.1,0.4,0.3,0.5,0.5s0.2,0.5,0.2,0.8c0,0.3-0.1,0.6-0.2,0.8c-0.1,0.2-0.3,0.4-0.5,0.6S99-3.2,98.7-3.1S98-3,97.7-3
			c-1.1,0-2-0.4-2.8-1.1l0.3-0.4c0.3,0.3,0.7,0.6,1.1,0.7c0.4,0.2,0.9,0.3,1.4,0.3c0.6,0,1.1-0.1,1.4-0.3c0.3-0.2,0.5-0.6,0.5-1
			c0-0.2,0-0.4-0.1-0.6c-0.1-0.2-0.2-0.3-0.4-0.4S98.7-6,98.4-6.1c-0.3-0.1-0.6-0.2-1-0.2c-0.4-0.1-0.7-0.2-1-0.3
			c-0.3-0.1-0.5-0.2-0.7-0.3c-0.2-0.1-0.3-0.3-0.4-0.5c-0.1-0.2-0.1-0.4-0.1-0.7c0-0.3,0.1-0.6,0.2-0.8c0.1-0.2,0.3-0.5,0.5-0.6
			c0.2-0.2,0.5-0.3,0.8-0.4c0.3-0.1,0.6-0.1,1-0.1c0.5,0,0.9,0.1,1.2,0.2c0.4,0.1,0.7,0.3,1,0.6L99.5-8.9z"/>
		<path fill="#4D4D4D" d="M104-3.3c0,0-0.1,0-0.1,0.1c-0.1,0-0.1,0.1-0.2,0.1c-0.1,0-0.2,0.1-0.3,0.1c-0.1,0-0.2,0-0.4,0
			c-0.1,0-0.3,0-0.4-0.1c-0.1,0-0.2-0.1-0.3-0.2c-0.1-0.1-0.2-0.2-0.2-0.3c-0.1-0.1-0.1-0.2-0.1-0.4v-3.9h-0.7v-0.4h0.7V-10h0.5v1.8
			h1.2v0.4h-1.2V-4c0,0.2,0.1,0.3,0.2,0.4c0.1,0.1,0.3,0.1,0.5,0.1c0.2,0,0.4,0,0.5-0.1c0.1-0.1,0.2-0.1,0.3-0.1L104-3.3z"/>
		<path fill="#4D4D4D" d="M107.8-7.7c-0.5,0-0.9,0.2-1.2,0.4c-0.3,0.3-0.6,0.6-0.7,1.1V-3h-0.5v-5.2h0.5v1.3
			c0.2-0.4,0.4-0.7,0.7-0.9c0.3-0.2,0.6-0.4,0.9-0.4c0.1,0,0.1,0,0.2,0c0.1,0,0.1,0,0.1,0L107.8-7.7L107.8-7.7z"/>
		<path fill="#4D4D4D" d="M110.4-2.9c-0.2,0-0.5,0-0.7-0.1c-0.2-0.1-0.4-0.2-0.5-0.3c-0.2-0.1-0.3-0.3-0.4-0.5
			c-0.1-0.2-0.1-0.4-0.1-0.6c0-0.2,0.1-0.4,0.2-0.6c0.1-0.2,0.3-0.3,0.4-0.5c0.2-0.1,0.4-0.2,0.7-0.3c0.3-0.1,0.6-0.1,0.9-0.1
			c0.3,0,0.6,0,0.8,0.1c0.3,0,0.5,0.1,0.8,0.2v-0.5c0-0.5-0.1-0.9-0.4-1.2c-0.3-0.3-0.7-0.4-1.1-0.4c-0.3,0-0.5,0.1-0.8,0.2
			c-0.3,0.1-0.6,0.3-0.8,0.5l-0.2-0.3c0.7-0.5,1.3-0.7,1.9-0.7c0.6,0,1.1,0.2,1.5,0.5c0.4,0.4,0.5,0.9,0.5,1.5v2.5
			c0,0.2,0.1,0.2,0.2,0.2V-3c0,0-0.1,0-0.1,0S113-3,113-3c-0.1,0-0.2,0-0.3-0.1c-0.1-0.1-0.1-0.2-0.1-0.3v-0.4
			c-0.2,0.3-0.5,0.5-0.9,0.7C111.3-3,110.9-2.9,110.4-2.9z M110.5-3.3c0.4,0,0.7-0.1,1.1-0.2c0.3-0.1,0.6-0.3,0.7-0.6
			c0.1-0.1,0.2-0.3,0.2-0.4v-0.9c-0.5-0.2-1-0.3-1.5-0.3c-0.5,0-0.9,0.1-1.3,0.3c-0.3,0.2-0.5,0.5-0.5,0.8c0,0.2,0,0.3,0.1,0.5
			c0.1,0.2,0.2,0.3,0.3,0.4s0.3,0.2,0.4,0.3C110.2-3.4,110.3-3.3,110.5-3.3z"/>
		<path fill="#4D4D4D" d="M116.5-3.4c0.7,0,1.2-0.2,1.6-0.4c0.4-0.3,0.6-0.7,0.6-1.2c0-0.3,0-0.5-0.1-0.7c-0.1-0.2-0.2-0.4-0.4-0.5
			c-0.2-0.1-0.3-0.3-0.6-0.3c-0.2-0.1-0.5-0.1-0.7-0.1h-0.2v-0.5h0.2c0.2,0,0.4,0,0.5-0.1c0.2-0.1,0.3-0.1,0.4-0.3
			c0.1-0.1,0.2-0.2,0.3-0.4c0.1-0.1,0.1-0.3,0.1-0.5c0-0.2,0-0.4-0.1-0.5c-0.1-0.1-0.2-0.3-0.3-0.4c-0.1-0.1-0.3-0.2-0.4-0.2
			c-0.2-0.1-0.3-0.1-0.5-0.1c-0.2,0-0.4,0-0.6,0.1c-0.2,0.1-0.3,0.2-0.4,0.3c-0.1,0.1-0.2,0.3-0.3,0.5s-0.1,0.4-0.1,0.6v5H115v-5.1
			c0-0.3,0-0.6,0.1-0.8c0.1-0.2,0.2-0.5,0.4-0.6c0.2-0.2,0.4-0.3,0.6-0.4c0.2-0.1,0.5-0.1,0.8-0.1c0.3,0,0.5,0,0.7,0.1
			c0.2,0.1,0.4,0.2,0.6,0.3s0.3,0.3,0.4,0.5c0.1,0.2,0.1,0.4,0.1,0.6c0,0.2,0,0.4-0.1,0.5c-0.1,0.2-0.1,0.3-0.2,0.5
			c-0.1,0.1-0.2,0.3-0.3,0.3c-0.1,0.1-0.3,0.2-0.4,0.2c0.5,0.1,0.9,0.3,1.2,0.7c0.3,0.3,0.4,0.8,0.4,1.3c0,0.7-0.2,1.2-0.7,1.5
			s-1.2,0.5-2,0.6L116.5-3.4L116.5-3.4z"/>
		<path fill="#4D4D4D" d="M123.1-2.9c-0.4,0-0.7-0.1-1-0.2c-0.3-0.1-0.6-0.3-0.8-0.6c-0.2-0.2-0.4-0.5-0.5-0.9
			c-0.1-0.3-0.2-0.7-0.2-1c0-0.4,0.1-0.7,0.2-1c0.1-0.3,0.3-0.6,0.5-0.8c0.2-0.2,0.5-0.4,0.8-0.6c0.3-0.1,0.6-0.2,1-0.2
			c0.4,0,0.7,0.1,1,0.2c0.3,0.1,0.6,0.3,0.8,0.6c0.2,0.2,0.4,0.5,0.5,0.8c0.1,0.3,0.2,0.7,0.2,1c0,0,0,0.1,0,0.1s0,0.1,0,0.1h-4.5
			c0,0.3,0.1,0.6,0.2,0.8c0.1,0.3,0.3,0.5,0.5,0.7c0.2,0.2,0.4,0.3,0.6,0.4c0.2,0.1,0.5,0.2,0.8,0.2c0.2,0,0.4,0,0.5-0.1
			c0.2,0,0.3-0.1,0.5-0.2c0.1-0.1,0.3-0.2,0.4-0.3c0.1-0.1,0.2-0.3,0.3-0.4l0.4,0.1c-0.1,0.2-0.2,0.4-0.3,0.5
			c-0.1,0.2-0.3,0.3-0.5,0.4c-0.2,0.1-0.4,0.2-0.6,0.3C123.6-3,123.4-2.9,123.1-2.9z M125.2-5.8c0-0.3-0.1-0.6-0.2-0.8
			c-0.1-0.3-0.3-0.5-0.4-0.7c-0.2-0.2-0.4-0.3-0.6-0.4c-0.2-0.1-0.5-0.2-0.8-0.2c-0.3,0-0.5,0.1-0.8,0.2c-0.2,0.1-0.4,0.2-0.6,0.4
			c-0.2,0.2-0.3,0.4-0.4,0.7c-0.1,0.3-0.2,0.5-0.2,0.8C121.1-5.8,125.2-5.8,125.2-5.8z"/>
		<path fill="#4D4D4D" d="M133.4-3.5V-3h-3.2v-0.5h1.4v-4.6c-0.1,0.1-0.1,0.2-0.3,0.3c-0.1,0.1-0.3,0.2-0.4,0.3
			c-0.2,0.1-0.3,0.2-0.5,0.2c-0.2,0.1-0.3,0.1-0.4,0.1v-0.5c0.2,0,0.3,0,0.5-0.1c0.2-0.1,0.4-0.2,0.5-0.3c0.2-0.1,0.3-0.2,0.4-0.3
			c0.1-0.1,0.2-0.2,0.2-0.2h0.5v5.2L133.4-3.5L133.4-3.5z"/>
	</g>
	<g>
		<path fill="#4D4D4D" d="M52.1,9.6V8.4h1v1.2h0.8v1h-0.8v1.6h-1v-1.6h-2.8v-1l2.4-3.8h1.2l-2.3,3.8H52.1z"/>
		<path fill="#4D4D4D" d="M57.9,6.6c-0.6,0-1,0.2-1.3,0.6c-0.3,0.4-0.4,0.9-0.4,1.6c0.2-0.2,0.4-0.3,0.7-0.5c0.3-0.1,0.6-0.2,1-0.2
			c0.6,0,1.1,0.2,1.4,0.6c0.4,0.4,0.6,0.9,0.6,1.5c0,0.6-0.2,1.1-0.6,1.5c-0.4,0.4-0.9,0.6-1.6,0.6c-1,0-1.7-0.5-2.1-1.4
			c-0.2-0.5-0.3-1.1-0.3-1.8c0-0.7,0.1-1.2,0.2-1.7c0.1-0.4,0.3-0.8,0.6-1c0.5-0.5,1.1-0.8,1.8-0.8c0.7,0,1.3,0.2,1.9,0.7l-0.5,0.8
			C59,7,58.8,6.9,58.6,6.8C58.3,6.7,58.1,6.6,57.9,6.6z M57.8,9c-0.4,0-0.7,0.1-0.9,0.3s-0.4,0.5-0.4,0.8c0,0.3,0.1,0.6,0.4,0.8
			c0.2,0.2,0.5,0.4,0.9,0.4c0.4,0,0.7-0.1,0.9-0.3c0.2-0.2,0.4-0.5,0.4-0.8c0-0.3-0.1-0.6-0.3-0.8S58.1,9,57.8,9z"/>
		<path fill="#4D4D4D" d="M65.3,5.8v1h-2.7v1.6c0.3-0.1,0.6-0.2,0.9-0.2c0.6,0,1.1,0.2,1.6,0.5c0.4,0.4,0.7,0.9,0.7,1.5
			c0,0.6-0.2,1.1-0.7,1.5c-0.5,0.4-1,0.6-1.7,0.6c-0.9,0-1.6-0.3-2.1-0.9l0.6-0.8c0,0,0.1,0.1,0.2,0.2c0.1,0.1,0.3,0.2,0.5,0.3
			c0.3,0.1,0.5,0.2,0.8,0.2s0.6-0.1,0.8-0.3c0.3-0.2,0.4-0.5,0.4-0.8c0-0.4-0.1-0.6-0.4-0.8c-0.3-0.2-0.6-0.3-1-0.3
			s-0.8,0.1-1.2,0.3l-0.5-0.5V5.8C61.6,5.8,65.3,5.8,65.3,5.8z"/>
		<path fill="#4D4D4D" d="M68.4,9.6v2.6h-1V7.3h1v0.9c0.1-0.3,0.4-0.5,0.7-0.7c0.3-0.2,0.6-0.3,1-0.3c0.8,0,1.3,0.3,1.6,1
			c0.5-0.6,1.1-1,1.8-1c0.6,0,1,0.2,1.3,0.5c0.3,0.3,0.5,0.8,0.5,1.5v3h-1V9.5c0-0.9-0.4-1.3-1.1-1.3c-0.3,0-0.7,0.1-0.9,0.3
			c-0.3,0.2-0.4,0.5-0.4,1v2.7h-1V9.5c0-0.5-0.1-0.8-0.2-1c-0.2-0.2-0.4-0.3-0.8-0.3s-0.7,0.1-0.9,0.4C68.5,8.8,68.4,9.1,68.4,9.6z"
			/>
	</g>
	<g>
		<path fill="#4D4D4D" d="M90.9,9.6V8.4h1v1.2h0.8v1H92v1.6h-1v-1.6h-2.8v-1l2.4-3.8h1.2l-2.3,3.8H90.9z"/>
		<path fill="#4D4D4D" d="M94.7,11.4c-0.4-0.6-0.7-1.4-0.7-2.4s0.2-1.8,0.7-2.4c0.4-0.6,1.1-0.9,2-0.9c0.9,0,1.5,0.3,2,0.9
			C99.1,7.1,99.3,8,99.3,9s-0.2,1.8-0.7,2.4c-0.4,0.6-1.1,0.9-2,0.9C95.8,12.3,95.2,12,94.7,11.4z M95.5,7.2c-0.3,0.4-0.4,1-0.4,1.7
			c0,0.7,0.1,1.3,0.4,1.7c0.3,0.4,0.7,0.7,1.2,0.7c0.5,0,0.9-0.2,1.2-0.7c0.2-0.4,0.4-1,0.4-1.7c0-0.7-0.1-1.3-0.4-1.7
			c-0.2-0.4-0.6-0.7-1.2-0.7C96.2,6.6,95.8,6.8,95.5,7.2z"/>
		<path fill="#4D4D4D" d="M103.1,6.1c0.3,0.3,0.4,0.6,0.4,1c0,0.4-0.1,0.7-0.4,1c-0.3,0.3-0.6,0.4-1,0.4s-0.7-0.1-1-0.4
			c-0.3-0.3-0.4-0.6-0.4-1c0-0.4,0.1-0.7,0.4-1c0.3-0.3,0.6-0.4,1-0.4C102.5,5.6,102.8,5.8,103.1,6.1z M106.8,5.8l-4.7,6.4h-1.2
			l4.7-6.4H106.8z M102.5,7.6c0.1-0.1,0.1-0.3,0.1-0.5s-0.1-0.3-0.2-0.5c-0.1-0.1-0.2-0.2-0.4-0.2s-0.3,0.1-0.4,0.2
			c-0.1,0.1-0.1,0.3-0.1,0.5s0.1,0.3,0.2,0.5c0.1,0.1,0.2,0.2,0.4,0.2S102.4,7.7,102.5,7.6z M106.7,9.8c0.3,0.3,0.4,0.6,0.4,1
			s-0.1,0.7-0.4,1c-0.3,0.3-0.6,0.4-1,0.4c-0.4,0-0.7-0.1-1-0.4c-0.3-0.3-0.4-0.6-0.4-1s0.1-0.7,0.4-1c0.3-0.3,0.6-0.4,1-0.4
			C106.1,9.4,106.5,9.5,106.7,9.8z M106.1,11.3c0.1-0.1,0.1-0.3,0.1-0.5c0-0.2-0.1-0.3-0.2-0.5c-0.1-0.1-0.2-0.2-0.4-0.2
			c-0.2,0-0.3,0.1-0.4,0.2c-0.1,0.1-0.1,0.3-0.1,0.5c0,0.2,0.1,0.3,0.2,0.5c0.1,0.1,0.2,0.2,0.4,0.2C105.9,11.5,106,11.4,106.1,11.3
			z"/>
	</g>
	<g>
		<path fill="#4D4D4D" d="M123.1,11.3c0.6,0,1-0.2,1.3-0.6c0.3-0.4,0.4-0.9,0.4-1.6c-0.2,0.2-0.4,0.3-0.7,0.5
			c-0.3,0.1-0.6,0.2-1,0.2c-0.6,0-1.1-0.2-1.4-0.6c-0.4-0.4-0.6-0.9-0.6-1.5s0.2-1.1,0.6-1.5c0.4-0.4,0.9-0.6,1.6-0.6
			c1,0,1.7,0.5,2.1,1.4c0.2,0.5,0.3,1.1,0.3,1.8c0,0.7-0.1,1.2-0.2,1.7c-0.1,0.4-0.3,0.8-0.6,1c-0.5,0.5-1.1,0.8-1.8,0.8
			s-1.3-0.2-1.9-0.7l0.5-0.8c0.1,0.1,0.3,0.2,0.6,0.3C122.7,11.3,122.9,11.3,123.1,11.3z M123.3,8.9c0.4,0,0.7-0.1,0.9-0.3
			c0.2-0.2,0.4-0.5,0.4-0.8c0-0.3-0.1-0.6-0.4-0.8c-0.2-0.2-0.5-0.4-0.9-0.4s-0.7,0.1-0.9,0.3c-0.2,0.2-0.3,0.5-0.3,0.8
			c0,0.3,0.1,0.6,0.3,0.8C122.6,8.8,122.9,8.9,123.3,8.9z"/>
		<path fill="#4D4D4D" d="M129.5,9.6v2.6h-1V7.3h1v0.9c0.1-0.3,0.4-0.5,0.7-0.7c0.3-0.2,0.6-0.3,1-0.3c0.8,0,1.3,0.3,1.6,1
			c0.5-0.6,1.1-1,1.8-1c0.6,0,1,0.2,1.3,0.5c0.3,0.3,0.5,0.8,0.5,1.5v3h-1V9.5c0-0.9-0.4-1.3-1.1-1.3c-0.3,0-0.7,0.1-0.9,0.3
			c-0.3,0.2-0.4,0.5-0.4,1v2.7h-1V9.5c0-0.5-0.1-0.8-0.2-1c-0.2-0.2-0.4-0.3-0.8-0.3s-0.7,0.1-0.9,0.4
			C129.6,8.8,129.5,9.1,129.5,9.6z"/>
		<path fill="#4D4D4D" d="M138.3,6.4c-0.1-0.1-0.2-0.3-0.2-0.5c0-0.2,0.1-0.3,0.2-0.5c0.1-0.1,0.3-0.2,0.5-0.2
			c0.2,0,0.3,0.1,0.5,0.2c0.1,0.1,0.2,0.3,0.2,0.5c0,0.2-0.1,0.3-0.2,0.5c-0.1,0.1-0.3,0.2-0.5,0.2C138.6,6.5,138.4,6.5,138.3,6.4z
			 M139.2,12.2h-1V7.3h1V12.2z"/>
		<path fill="#4D4D4D" d="M142.2,9.6v2.6h-1V7.3h1v0.9c0.2-0.3,0.4-0.5,0.7-0.7c0.3-0.2,0.6-0.3,0.9-0.3c0.6,0,1,0.2,1.3,0.5
			c0.3,0.3,0.5,0.8,0.5,1.5v3h-1V9.5c0-0.9-0.4-1.3-1.1-1.3c-0.4,0-0.7,0.1-0.9,0.4C142.3,8.8,142.2,9.1,142.2,9.6z"/>
	</g>
</g>
</svg>
