<!-- Generator: Adobe Illustrator 18.1.1, SVG Export Plug-In  -->
<svg version="1.1"
   xmlns="http://www.w3.org/2000/svg" xmlns:xlink="http://www.w3.org/1999/xlink" xmlns:a="http://ns.adobe.com/AdobeSVGViewerExtensions/3.0/"
   x="0px" y="0px" width="60.629px" height="91.918px" viewBox="0 0 60.629 91.918" enable-background="new 0 0 60.629 91.918"
   xml:space="preserve">
<defs>
</defs>
<g>
  <g>
    <path fill="#333333" d="M37.855,0h0.18c1.554,0.121,2.872,0.718,3.949,1.795C43.061,2.872,43.6,4.191,43.6,5.745
      c0,0.48-0.062,0.959-0.179,1.437L38.214,34.11H54.91c2.272,0.121,3.95,1.198,5.027,3.231c1.077,2.037,0.898,4.011-0.539,5.925
      L27.263,89.405c-1.198,1.675-2.693,2.513-4.488,2.513c-0.718,0-1.436-0.179-2.154-0.539c-1.319-0.48-2.275-1.318-2.873-2.513
      c-0.6-1.198-0.78-2.454-0.539-3.77l5.206-30.699L5.719,54.218c-2.275,0-3.95-1.046-5.027-3.142
      c-1.077-2.093-0.898-4.098,0.539-6.014L33.367,2.513c0.118-0.118,0.239-0.238,0.359-0.359c0.359-0.477,0.718-0.836,1.077-1.077
      C35.639,0.479,36.478,0.121,37.316,0C37.434,0,37.614,0,37.855,0z M5.899,48.473l23.339,0.179l-6.463,37.521l31.956-46.318H31.392
      l6.463-34.111L5.899,48.473z"/>
  </g>
</g>
</svg>
