<!-- Generator: Adobe Illustrator 18.1.1, SVG Export Plug-In  -->
<svg version="1.1"
   xmlns="http://www.w3.org/2000/svg" xmlns:xlink="http://www.w3.org/1999/xlink" xmlns:a="http://ns.adobe.com/AdobeSVGViewerExtensions/3.0/"
   x="0px" y="0px" width="169px" height="71.37px" viewBox="0 0 169 71.37" enable-background="new 0 0 169 71.37"
   xml:space="preserve">
<defs>
</defs>
<g>
  <g opacity="0.3">
    <polygon points="84.439,71.37 98.561,57 91.582,57     "/>
  </g>
  <g>
    <path fill="#F2F2F2" d="M168.03,0H0.97C0.467,0,0,0.677,0,1.18v54.815C0,56.499,0.467,57,0.97,57h76.097
      c3.559,8,6.787,13.827,6.787,13.827c0.13,0.282,0.283,0.423,0.456,0.423c0.174,0,0.326-0.145,0.456-0.427
      c0,0,3.228-5.822,6.787-13.822h76.478c0.503,0,0.97-0.501,0.97-1.004V1.18C169,0.677,168.533,0,168.03,0z"/>
  </g>
  <g>
    <path fill="#4D4D4D" d="M24.315,20.987v-8.52l-3.886,6.647h-0.444L16.1,12.467v8.52h-0.708v-9.852H16.1l4.107,7.049l4.107-7.049
      h0.708v9.852H24.315z"/>
    <path fill="#4D4D4D" d="M29.879,21.125c-0.333,0-0.645-0.058-0.937-0.173c-0.292-0.115-0.546-0.273-0.763-0.472
      c-0.218-0.199-0.387-0.435-0.507-0.708c-0.12-0.273-0.18-0.566-0.18-0.881c0-0.314,0.074-0.601,0.222-0.86
      c0.148-0.259,0.356-0.483,0.625-0.673s0.585-0.338,0.951-0.444c0.365-0.106,0.77-0.16,1.214-0.16c0.389,0,0.782,0.035,1.18,0.104
      c0.397,0.069,0.754,0.164,1.068,0.284v-0.708c0-0.684-0.194-1.228-0.583-1.631c-0.389-0.402-0.916-0.604-1.582-0.604
      c-0.361,0-0.738,0.074-1.131,0.222c-0.393,0.148-0.789,0.361-1.186,0.638l-0.277-0.472c0.934-0.629,1.813-0.944,2.636-0.944
      c0.869,0,1.556,0.252,2.061,0.756c0.504,0.504,0.756,1.2,0.756,2.088v3.525c0,0.231,0.097,0.347,0.292,0.347v0.624
      c-0.046,0.009-0.09,0.014-0.132,0.014c-0.042,0-0.081,0-0.118,0c-0.167,0-0.319-0.058-0.458-0.173
      c-0.139-0.115-0.208-0.266-0.208-0.451v-0.597c-0.333,0.435-0.756,0.768-1.27,0.999C31.038,21.01,30.48,21.125,29.879,21.125z
       M30.018,20.57c0.536,0,1.031-0.099,1.485-0.298c0.453-0.199,0.791-0.47,1.013-0.812c0.157-0.185,0.236-0.37,0.236-0.555v-1.277
      c-0.703-0.259-1.425-0.388-2.165-0.388c-0.721,0-1.304,0.148-1.748,0.444c-0.444,0.296-0.666,0.685-0.666,1.166
      c0,0.241,0.046,0.467,0.139,0.68c0.092,0.213,0.222,0.396,0.388,0.548c0.167,0.153,0.363,0.273,0.59,0.361
      C29.516,20.527,29.759,20.57,30.018,20.57z"/>
    <path fill="#4D4D4D" d="M39.676,14.395c-0.657,0.019-1.226,0.211-1.707,0.576c-0.481,0.366-0.819,0.867-1.013,1.506v4.51h-0.694
      v-7.216h0.652v1.776c0.25-0.509,0.58-0.923,0.992-1.242c0.411-0.319,0.853-0.502,1.325-0.548c0.092,0,0.176-0.002,0.25-0.007
      c0.074-0.005,0.139-0.007,0.194-0.007V14.395z"/>
    <path fill="#4D4D4D" d="M46.905,20.987l-2.817-3.858l-1.707,1.568v2.29h-0.694v-10.13h0.694v7.077l4.385-4.149h0.805l-3.025,2.928
      l3.122,4.274H46.905z"/>
    <path fill="#4D4D4D" d="M52.525,21.098c-0.5,0-0.958-0.104-1.374-0.312s-0.777-0.486-1.082-0.833
      c-0.305-0.347-0.541-0.742-0.708-1.186c-0.167-0.444-0.25-0.902-0.25-1.374c0-0.49,0.081-0.962,0.243-1.415
      c0.162-0.453,0.391-0.853,0.687-1.2c0.296-0.347,0.65-0.622,1.061-0.826c0.412-0.203,0.863-0.305,1.353-0.305
      c0.629,0,1.177,0.164,1.644,0.493c0.467,0.328,0.867,0.729,1.2,1.2v-1.568h0.624v7.354c0,0.49-0.092,0.92-0.277,1.291
      c-0.185,0.37-0.433,0.678-0.743,0.923c-0.31,0.245-0.671,0.43-1.082,0.555s-0.844,0.187-1.297,0.187
      c-0.416,0-0.791-0.039-1.124-0.118c-0.333-0.079-0.627-0.19-0.881-0.333c-0.254-0.144-0.481-0.319-0.68-0.527
      c-0.199-0.208-0.373-0.437-0.52-0.687l0.472-0.319c0.287,0.49,0.675,0.849,1.166,1.075c0.49,0.227,1.013,0.34,1.568,0.34
      c0.37,0,0.719-0.051,1.048-0.153c0.328-0.102,0.615-0.252,0.86-0.451c0.245-0.199,0.439-0.446,0.583-0.742
      c0.143-0.296,0.215-0.643,0.215-1.041v-1.582c-0.296,0.463-0.689,0.837-1.18,1.124C53.561,20.954,53.052,21.098,52.525,21.098z
       M52.692,20.501c0.305,0,0.601-0.058,0.888-0.173c0.287-0.116,0.548-0.266,0.784-0.451c0.236-0.185,0.432-0.393,0.59-0.624
      c0.157-0.231,0.25-0.462,0.278-0.694v-2.373c-0.111-0.278-0.259-0.534-0.444-0.77c-0.185-0.236-0.395-0.437-0.631-0.604
      c-0.236-0.167-0.49-0.298-0.763-0.396c-0.273-0.097-0.548-0.146-0.826-0.146c-0.435,0-0.823,0.093-1.166,0.278
      c-0.342,0.185-0.631,0.426-0.867,0.722c-0.236,0.296-0.416,0.631-0.541,1.006c-0.125,0.375-0.187,0.752-0.187,1.131
      c0,0.416,0.074,0.81,0.222,1.18c0.148,0.37,0.354,0.699,0.617,0.985c0.264,0.287,0.569,0.513,0.916,0.68
      C51.908,20.418,52.284,20.501,52.692,20.501z"/>
    <path fill="#4D4D4D" d="M62.169,14.395c-0.657,0.019-1.226,0.211-1.707,0.576c-0.481,0.366-0.819,0.867-1.013,1.506v4.51h-0.694
      v-7.216h0.652v1.776c0.25-0.509,0.58-0.923,0.992-1.242c0.411-0.319,0.853-0.502,1.325-0.548c0.092,0,0.176-0.002,0.25-0.007
      c0.074-0.005,0.139-0.007,0.194-0.007V14.395z"/>
    <path fill="#4D4D4D" d="M65.832,21.125c-0.333,0-0.645-0.058-0.937-0.173c-0.292-0.115-0.546-0.273-0.763-0.472
      c-0.218-0.199-0.387-0.435-0.507-0.708c-0.12-0.273-0.18-0.566-0.18-0.881c0-0.314,0.074-0.601,0.222-0.86
      c0.148-0.259,0.356-0.483,0.625-0.673s0.585-0.338,0.951-0.444c0.365-0.106,0.77-0.16,1.214-0.16c0.389,0,0.782,0.035,1.18,0.104
      c0.397,0.069,0.754,0.164,1.068,0.284v-0.708c0-0.684-0.194-1.228-0.583-1.631c-0.389-0.402-0.916-0.604-1.582-0.604
      c-0.361,0-0.738,0.074-1.131,0.222c-0.393,0.148-0.789,0.361-1.186,0.638l-0.277-0.472c0.934-0.629,1.813-0.944,2.636-0.944
      c0.869,0,1.556,0.252,2.061,0.756c0.504,0.504,0.756,1.2,0.756,2.088v3.525c0,0.231,0.097,0.347,0.292,0.347v0.624
      c-0.046,0.009-0.09,0.014-0.132,0.014c-0.042,0-0.081,0-0.118,0c-0.167,0-0.319-0.058-0.458-0.173
      c-0.139-0.115-0.208-0.266-0.208-0.451v-0.597c-0.333,0.435-0.756,0.768-1.27,0.999C66.991,21.01,66.434,21.125,65.832,21.125z
       M65.971,20.57c0.536,0,1.031-0.099,1.485-0.298c0.453-0.199,0.791-0.47,1.013-0.812c0.157-0.185,0.236-0.37,0.236-0.555v-1.277
      c-0.703-0.259-1.425-0.388-2.165-0.388c-0.721,0-1.304,0.148-1.748,0.444c-0.444,0.296-0.666,0.685-0.666,1.166
      c0,0.241,0.046,0.467,0.139,0.68c0.092,0.213,0.222,0.396,0.388,0.548c0.167,0.153,0.363,0.273,0.59,0.361
      C65.469,20.527,65.712,20.57,65.971,20.57z"/>
    <path fill="#4D4D4D" d="M72.562,20.987v-5.8h-1.013v-0.569h1.013v-1.082c0-0.888,0.183-1.579,0.548-2.074
      c0.365-0.495,0.867-0.742,1.505-0.742c0.268,0,0.532,0.042,0.791,0.125c0.259,0.083,0.472,0.194,0.638,0.333l-0.25,0.5
      c-0.13-0.102-0.289-0.185-0.479-0.25c-0.189-0.065-0.386-0.097-0.59-0.097c-0.472,0-0.835,0.187-1.089,0.562
      c-0.254,0.375-0.382,0.918-0.382,1.631v1.096h2.054v0.569h-2.054v5.8H72.562z"/>
    <path fill="#4D4D4D" d="M80.638,21.125c-0.509,0-0.981-0.099-1.416-0.298c-0.435-0.199-0.812-0.472-1.131-0.819
      c-0.319-0.347-0.569-0.747-0.749-1.2c-0.18-0.453-0.271-0.939-0.271-1.457c0-0.509,0.09-0.987,0.271-1.436
      c0.18-0.449,0.428-0.842,0.742-1.179c0.314-0.338,0.689-0.604,1.124-0.798c0.435-0.194,0.902-0.291,1.401-0.291
      c0.509,0,0.978,0.1,1.409,0.298c0.43,0.199,0.803,0.467,1.117,0.805c0.314,0.338,0.562,0.731,0.743,1.18
      c0.18,0.449,0.27,0.923,0.27,1.422c0,0.046-0.002,0.104-0.007,0.174c-0.005,0.069-0.007,0.113-0.007,0.132h-6.341
      c0.028,0.416,0.125,0.803,0.291,1.159c0.167,0.356,0.377,0.664,0.632,0.923c0.254,0.259,0.548,0.463,0.881,0.61
      c0.333,0.148,0.689,0.222,1.068,0.222c0.25,0,0.497-0.035,0.742-0.104c0.245-0.069,0.472-0.164,0.68-0.284
      c0.208-0.12,0.393-0.266,0.555-0.437c0.162-0.171,0.289-0.358,0.382-0.562l0.61,0.167c-0.111,0.259-0.266,0.497-0.465,0.715
      c-0.199,0.217-0.43,0.405-0.694,0.562c-0.264,0.157-0.553,0.28-0.867,0.368C81.295,21.081,80.971,21.125,80.638,21.125z
       M83.469,17.101c-0.028-0.425-0.123-0.814-0.284-1.166c-0.162-0.351-0.37-0.654-0.625-0.909c-0.254-0.254-0.548-0.453-0.881-0.597
      c-0.333-0.143-0.689-0.215-1.068-0.215c-0.379,0-0.735,0.072-1.068,0.215c-0.333,0.144-0.627,0.342-0.881,0.597
      c-0.254,0.254-0.458,0.56-0.61,0.916c-0.153,0.356-0.243,0.742-0.271,1.159H83.469z"/>
    <path fill="#4D4D4D" d="M92.253,20.987h-0.694v-4.024c0-0.934-0.132-1.614-0.395-2.04c-0.264-0.425-0.687-0.638-1.27-0.638
      c-0.305,0-0.608,0.055-0.909,0.167c-0.301,0.111-0.578,0.268-0.833,0.472c-0.254,0.204-0.479,0.442-0.673,0.715
      c-0.194,0.273-0.338,0.567-0.43,0.881v4.468h-0.694v-7.216h0.638v1.721c0.148-0.278,0.333-0.529,0.555-0.756
      c0.222-0.227,0.467-0.421,0.735-0.583c0.268-0.162,0.557-0.287,0.867-0.375c0.31-0.088,0.626-0.132,0.951-0.132
      c0.786,0,1.341,0.275,1.665,0.826c0.324,0.551,0.486,1.339,0.486,2.366V20.987z"/>
    <path fill="#4D4D4D" d="M97.304,21.125c-0.555,0-1.087-0.093-1.596-0.277c-0.509-0.185-0.953-0.462-1.332-0.833l0.347-0.472
      c0.388,0.352,0.791,0.611,1.207,0.777c0.416,0.167,0.874,0.25,1.374,0.25c0.629,0,1.136-0.132,1.519-0.396
      c0.384-0.264,0.576-0.631,0.576-1.103c0-0.222-0.049-0.409-0.146-0.562c-0.097-0.153-0.243-0.282-0.437-0.389
      c-0.194-0.106-0.435-0.201-0.721-0.284c-0.287-0.083-0.62-0.171-0.999-0.264c-0.407-0.092-0.761-0.185-1.062-0.278
      c-0.301-0.092-0.548-0.203-0.742-0.333c-0.194-0.129-0.34-0.287-0.437-0.472c-0.097-0.185-0.146-0.421-0.146-0.708
      c0-0.361,0.069-0.675,0.208-0.944c0.139-0.268,0.331-0.49,0.576-0.666c0.245-0.176,0.527-0.307,0.846-0.396
      c0.319-0.088,0.659-0.132,1.02-0.132c0.564,0,1.064,0.095,1.499,0.284c0.435,0.19,0.772,0.433,1.013,0.729l-0.388,0.375
      c-0.241-0.278-0.553-0.486-0.937-0.624c-0.384-0.139-0.793-0.208-1.228-0.208c-0.268,0-0.52,0.028-0.756,0.083
      c-0.236,0.055-0.442,0.144-0.617,0.264c-0.176,0.12-0.315,0.275-0.417,0.465c-0.102,0.19-0.152,0.414-0.152,0.673
      c0,0.213,0.035,0.384,0.104,0.513c0.069,0.13,0.181,0.241,0.333,0.333c0.153,0.093,0.349,0.174,0.59,0.243
      c0.24,0.069,0.527,0.146,0.86,0.229c0.453,0.111,0.856,0.217,1.207,0.319c0.352,0.102,0.645,0.227,0.881,0.375
      c0.236,0.148,0.416,0.324,0.541,0.527c0.125,0.204,0.187,0.463,0.187,0.777c0,0.648-0.252,1.163-0.756,1.547
      C98.819,20.934,98.146,21.125,97.304,21.125z"/>
    <path fill="#4D4D4D" d="M105.602,20.64c-0.037,0.019-0.1,0.053-0.187,0.104c-0.088,0.051-0.199,0.1-0.333,0.146
      c-0.134,0.046-0.284,0.088-0.451,0.125c-0.167,0.037-0.347,0.055-0.541,0.055c-0.194,0-0.377-0.028-0.548-0.083
      c-0.171-0.055-0.322-0.139-0.451-0.25c-0.13-0.111-0.234-0.245-0.312-0.402c-0.079-0.157-0.118-0.342-0.118-0.555v-5.44h-1.013
      v-0.569h1.013v-2.47h0.694v2.47h1.693v0.569h-1.693v5.273c0,0.268,0.092,0.47,0.278,0.604c0.185,0.134,0.397,0.201,0.638,0.201
      c0.287,0,0.534-0.049,0.743-0.146c0.208-0.097,0.335-0.16,0.382-0.187L105.602,20.64z"/>
    <path fill="#4D4D4D" d="M110.875,14.395c-0.657,0.019-1.226,0.211-1.707,0.576c-0.481,0.366-0.819,0.867-1.013,1.506v4.51h-0.694
      v-7.216h0.652v1.776c0.25-0.509,0.58-0.923,0.992-1.242c0.411-0.319,0.853-0.502,1.325-0.548c0.092,0,0.176-0.002,0.25-0.007
      c0.074-0.005,0.139-0.007,0.194-0.007V14.395z"/>
    <path fill="#4D4D4D" d="M114.538,21.125c-0.333,0-0.645-0.058-0.937-0.173c-0.292-0.115-0.546-0.273-0.763-0.472
      c-0.218-0.199-0.387-0.435-0.507-0.708c-0.12-0.273-0.18-0.566-0.18-0.881c0-0.314,0.074-0.601,0.222-0.86
      c0.148-0.259,0.356-0.483,0.625-0.673c0.268-0.19,0.585-0.338,0.951-0.444c0.365-0.106,0.77-0.16,1.214-0.16
      c0.389,0,0.782,0.035,1.18,0.104c0.397,0.069,0.754,0.164,1.068,0.284v-0.708c0-0.684-0.194-1.228-0.583-1.631
      c-0.389-0.402-0.916-0.604-1.582-0.604c-0.361,0-0.738,0.074-1.131,0.222c-0.393,0.148-0.789,0.361-1.186,0.638l-0.277-0.472
      c0.934-0.629,1.813-0.944,2.636-0.944c0.869,0,1.556,0.252,2.061,0.756c0.504,0.504,0.756,1.2,0.756,2.088v3.525
      c0,0.231,0.097,0.347,0.292,0.347v0.624c-0.046,0.009-0.09,0.014-0.132,0.014c-0.042,0-0.081,0-0.118,0
      c-0.167,0-0.319-0.058-0.458-0.173c-0.139-0.115-0.208-0.266-0.208-0.451v-0.597c-0.333,0.435-0.756,0.768-1.27,0.999
      C115.697,21.01,115.139,21.125,114.538,21.125z M114.677,20.57c0.536,0,1.031-0.099,1.485-0.298
      c0.453-0.199,0.791-0.47,1.013-0.812c0.157-0.185,0.236-0.37,0.236-0.555v-1.277c-0.703-0.259-1.425-0.388-2.165-0.388
      c-0.721,0-1.304,0.148-1.748,0.444c-0.444,0.296-0.666,0.685-0.666,1.166c0,0.241,0.046,0.467,0.139,0.68
      c0.092,0.213,0.222,0.396,0.388,0.548c0.167,0.153,0.363,0.273,0.59,0.361C114.175,20.527,114.418,20.57,114.677,20.57z"/>
    <path fill="#4D4D4D" d="M123.085,20.432c0.962-0.018,1.716-0.222,2.262-0.61c0.546-0.389,0.819-0.962,0.819-1.721
      c0-0.352-0.06-0.671-0.18-0.958c-0.12-0.287-0.292-0.534-0.514-0.742c-0.222-0.208-0.488-0.368-0.798-0.479
      c-0.31-0.111-0.65-0.167-1.02-0.167h-0.25v-0.652h0.236c0.268,0,0.516-0.042,0.743-0.125c0.227-0.083,0.423-0.201,0.59-0.354
      s0.296-0.333,0.389-0.541c0.092-0.208,0.139-0.437,0.139-0.687c0-0.259-0.051-0.493-0.153-0.701
      c-0.102-0.208-0.238-0.386-0.409-0.534c-0.171-0.148-0.375-0.261-0.61-0.34c-0.236-0.079-0.484-0.118-0.743-0.118
      c-0.324,0-0.608,0.058-0.853,0.173c-0.245,0.116-0.454,0.273-0.625,0.472c-0.171,0.199-0.301,0.437-0.389,0.715
      c-0.088,0.278-0.132,0.578-0.132,0.902v7.021h-0.666v-7.119c0-0.416,0.067-0.796,0.201-1.138c0.134-0.342,0.319-0.636,0.555-0.881
      c0.236-0.245,0.518-0.435,0.846-0.569c0.328-0.134,0.691-0.201,1.089-0.201c0.361,0,0.696,0.055,1.006,0.167
      c0.31,0.111,0.58,0.264,0.812,0.458c0.231,0.194,0.412,0.428,0.541,0.701c0.129,0.273,0.194,0.567,0.194,0.881
      c0,0.25-0.042,0.491-0.125,0.722c-0.083,0.231-0.194,0.442-0.333,0.631c-0.139,0.19-0.301,0.352-0.486,0.486
      c-0.185,0.134-0.384,0.224-0.597,0.271c0.722,0.157,1.279,0.479,1.672,0.964c0.393,0.486,0.59,1.08,0.59,1.783
      c0,0.916-0.34,1.623-1.02,2.123c-0.68,0.5-1.608,0.768-2.782,0.805V20.432z"/>
    <path fill="#4D4D4D" d="M132.314,21.125c-0.509,0-0.981-0.099-1.416-0.298c-0.435-0.199-0.812-0.472-1.131-0.819
      c-0.319-0.347-0.569-0.747-0.749-1.2c-0.18-0.453-0.271-0.939-0.271-1.457c0-0.509,0.09-0.987,0.271-1.436
      c0.18-0.449,0.428-0.842,0.742-1.179c0.314-0.338,0.689-0.604,1.124-0.798c0.435-0.194,0.902-0.291,1.402-0.291
      c0.509,0,0.978,0.1,1.409,0.298c0.43,0.199,0.803,0.467,1.117,0.805c0.314,0.338,0.562,0.731,0.743,1.18
      c0.18,0.449,0.27,0.923,0.27,1.422c0,0.046-0.002,0.104-0.007,0.174c-0.005,0.069-0.007,0.113-0.007,0.132h-6.341
      c0.028,0.416,0.125,0.803,0.291,1.159c0.167,0.356,0.377,0.664,0.632,0.923c0.254,0.259,0.548,0.463,0.881,0.61
      c0.333,0.148,0.689,0.222,1.068,0.222c0.25,0,0.497-0.035,0.742-0.104c0.245-0.069,0.472-0.164,0.68-0.284
      c0.208-0.12,0.393-0.266,0.555-0.437c0.162-0.171,0.289-0.358,0.382-0.562l0.61,0.167c-0.111,0.259-0.266,0.497-0.465,0.715
      c-0.199,0.217-0.43,0.405-0.694,0.562c-0.264,0.157-0.553,0.28-0.867,0.368S132.647,21.125,132.314,21.125z M135.144,17.101
      c-0.028-0.425-0.123-0.814-0.284-1.166c-0.162-0.351-0.37-0.654-0.625-0.909c-0.254-0.254-0.548-0.453-0.881-0.597
      c-0.333-0.143-0.689-0.215-1.068-0.215c-0.379,0-0.735,0.072-1.068,0.215c-0.333,0.144-0.627,0.342-0.881,0.597
      c-0.254,0.254-0.458,0.56-0.61,0.916c-0.153,0.356-0.243,0.742-0.271,1.159H135.144z"/>
    <path fill="#4D4D4D" d="M146.662,20.348v0.638h-4.441v-0.638h1.97v-6.411c-0.074,0.111-0.201,0.231-0.382,0.361
      c-0.18,0.13-0.379,0.252-0.597,0.368c-0.217,0.116-0.442,0.213-0.673,0.291c-0.231,0.079-0.439,0.118-0.624,0.118v-0.694
      c0.231,0,0.476-0.062,0.735-0.187c0.259-0.125,0.5-0.266,0.722-0.423c0.222-0.157,0.409-0.307,0.562-0.451
      c0.153-0.143,0.238-0.229,0.257-0.257h0.708v7.285H146.662z"/>
    <path fill="#4D4D4D" d="M152.253,17.712c0.629,0.102,1.133,0.384,1.512,0.847c0.379,0.463,0.569,1.032,0.569,1.707
      c0,0.416-0.076,0.793-0.229,1.131c-0.153,0.338-0.366,0.627-0.638,0.867c-0.273,0.24-0.599,0.428-0.978,0.562
      c-0.379,0.134-0.8,0.201-1.263,0.201c-0.694,0-1.304-0.148-1.832-0.444c-0.527-0.296-0.911-0.703-1.152-1.221l0.513-0.416
      c0.185,0.444,0.49,0.795,0.916,1.055c0.425,0.259,0.948,0.388,1.568,0.388c0.73,0,1.309-0.19,1.735-0.569
      c0.425-0.379,0.638-0.907,0.638-1.582c0-0.675-0.22-1.212-0.659-1.61c-0.439-0.398-1.061-0.597-1.866-0.597h-0.333V17.42h0.361
      c0.749,0,1.323-0.169,1.721-0.506c0.398-0.338,0.597-0.789,0.597-1.353c0-0.305-0.055-0.576-0.167-0.812
      c-0.111-0.236-0.264-0.437-0.458-0.604c-0.194-0.167-0.426-0.293-0.694-0.382c-0.268-0.088-0.56-0.132-0.874-0.132
      c-0.555,0-1.041,0.127-1.457,0.382c-0.416,0.255-0.722,0.599-0.916,1.034l-0.472-0.388c0.111-0.25,0.261-0.476,0.451-0.68
      c0.189-0.203,0.412-0.379,0.666-0.527c0.254-0.148,0.532-0.261,0.833-0.34c0.301-0.078,0.617-0.118,0.951-0.118
      c0.416,0,0.798,0.06,1.145,0.18c0.347,0.12,0.647,0.291,0.902,0.513c0.254,0.222,0.453,0.486,0.597,0.791
      c0.143,0.305,0.215,0.643,0.215,1.013c0,0.287-0.044,0.555-0.132,0.805c-0.088,0.25-0.215,0.472-0.382,0.666
      c-0.167,0.194-0.368,0.359-0.604,0.493C152.802,17.589,152.54,17.675,152.253,17.712z"/>
  </g>
  <g>
    <path fill="#4D4D4D" d="M16.418,34.67v-1.347h5.247v1.18l-2.168,2.425c0.821,0.026,1.463,0.284,1.924,0.776
      c0.462,0.492,0.693,1.08,0.693,1.764c0,0.915-0.31,1.634-0.93,2.155c-0.62,0.522-1.418,0.783-2.392,0.783
      c-0.975,0-1.929-0.312-2.861-0.936l0.642-1.219c0.735,0.513,1.505,0.77,2.309,0.77c0.521,0,0.951-0.122,1.289-0.366
      c0.338-0.244,0.507-0.594,0.507-1.052c0-0.457-0.188-0.823-0.564-1.097c-0.377-0.274-0.898-0.41-1.565-0.41
      c-0.334,0-0.654,0.047-0.962,0.141v-1.154l2.078-2.412H16.418z"/>
    <path fill="#4D4D4D" d="M29.721,33.31v1.373h-3.784v2.206c0.376-0.205,0.804-0.308,1.283-0.308c0.838,0,1.561,0.252,2.168,0.757
      c0.607,0.505,0.911,1.189,0.911,2.052c0,0.864-0.317,1.58-0.949,2.149c-0.633,0.569-1.411,0.853-2.335,0.853
      c-1.206,0-2.168-0.402-2.886-1.206l0.808-1.103c0.068,0.069,0.161,0.15,0.276,0.244c0.115,0.094,0.353,0.22,0.712,0.378
      c0.359,0.158,0.752,0.237,1.18,0.237c0.427,0,0.817-0.128,1.167-0.385c0.351-0.257,0.526-0.631,0.526-1.123
      c0-0.492-0.186-0.872-0.558-1.142c-0.372-0.269-0.842-0.404-1.411-0.404c-0.569,0-1.11,0.141-1.623,0.423l-0.641-0.693v-4.31
      H29.721z"/>
    <path fill="#4D4D4D" d="M33.223,41.129c-0.607-0.842-0.911-1.969-0.911-3.38c0-1.411,0.304-2.538,0.911-3.38
      c0.607-0.842,1.522-1.264,2.745-1.264c1.223,0,2.138,0.421,2.745,1.264c0.607,0.842,0.911,1.969,0.911,3.38
      c0,1.411-0.304,2.538-0.911,3.38c-0.607,0.842-1.522,1.264-2.745,1.264C34.745,42.392,33.83,41.971,33.223,41.129z M34.306,35.324
      c-0.355,0.616-0.532,1.424-0.532,2.424c0,1.001,0.177,1.809,0.532,2.425c0.355,0.616,0.908,0.924,1.661,0.924
      c0.752,0,1.302-0.306,1.648-0.917c0.346-0.611,0.52-1.422,0.52-2.431c0-1.009-0.173-1.819-0.52-2.431
      C37.27,34.706,36.72,34.4,35.968,34.4C35.215,34.4,34.661,34.708,34.306,35.324z"/>
    <path fill="#4D4D4D" d="M44.78,38.595v3.695h-1.437v-6.825h1.437v1.244c0.205-0.419,0.515-0.748,0.93-0.988
      c0.415-0.239,0.862-0.359,1.34-0.359c1.078,0,1.809,0.445,2.194,1.334c0.675-0.889,1.518-1.334,2.527-1.334
      c0.77,0,1.392,0.235,1.867,0.706c0.474,0.47,0.712,1.15,0.712,2.04v4.182h-1.437v-3.746c0-1.257-0.522-1.886-1.565-1.886
      c-0.488,0-0.913,0.156-1.276,0.468c-0.364,0.312-0.554,0.768-0.571,1.366v3.797h-1.437v-3.746c0-0.65-0.115-1.127-0.346-1.43
      c-0.231-0.303-0.595-0.455-1.09-0.455c-0.496,0-0.928,0.165-1.296,0.494C44.964,37.481,44.78,37.962,44.78,38.595z"/>
  </g>
  <g>
    <path fill="#4D4D4D" d="M74.41,33.323h3.258v8.967h-1.437v-7.62H74.41V33.323z"/>
    <path fill="#4D4D4D" d="M79.938,33.323h3.258v8.967H81.76v-7.62h-1.822V33.323z"/>
    <path fill="#4D4D4D" d="M88.982,33.701c0.368,0.398,0.552,0.879,0.552,1.443c0,0.564-0.186,1.048-0.558,1.45
      c-0.372,0.402-0.834,0.603-1.386,0.603c-0.551,0-1.011-0.199-1.379-0.596c-0.368-0.398-0.551-0.879-0.551-1.443
      s0.186-1.047,0.558-1.45c0.372-0.402,0.834-0.603,1.385-0.603C88.155,33.105,88.614,33.304,88.982,33.701z M94.203,33.323
      l-6.568,8.967H85.98l6.568-8.967H94.203z M88.123,35.818c0.137-0.175,0.205-0.391,0.205-0.648c0-0.257-0.073-0.472-0.218-0.648
      c-0.146-0.175-0.323-0.263-0.532-0.263c-0.21,0-0.383,0.088-0.52,0.263c-0.137,0.175-0.205,0.391-0.205,0.648
      c0,0.257,0.073,0.473,0.218,0.648c0.145,0.175,0.323,0.263,0.532,0.263S87.986,35.993,88.123,35.818z M94.075,38.897
      c0.368,0.398,0.552,0.879,0.552,1.443c0,0.564-0.186,1.048-0.558,1.45c-0.372,0.402-0.834,0.603-1.386,0.603
      c-0.551,0-1.011-0.199-1.379-0.596c-0.368-0.398-0.552-0.879-0.552-1.443c0-0.564,0.186-1.047,0.558-1.45
      c0.372-0.402,0.834-0.603,1.386-0.603C93.247,38.3,93.707,38.499,94.075,38.897z M93.241,41.039
      c0.136-0.175,0.205-0.391,0.205-0.648s-0.073-0.472-0.218-0.648c-0.145-0.175-0.323-0.263-0.532-0.263
      c-0.21,0-0.383,0.088-0.52,0.263c-0.137,0.175-0.205,0.391-0.205,0.648s0.073,0.473,0.218,0.648
      c0.145,0.175,0.323,0.263,0.532,0.263C92.931,41.302,93.104,41.214,93.241,41.039z"/>
  </g>
  <g>
    <path fill="#4D4D4D" d="M120.115,41.032c0.795,0,1.381-0.269,1.757-0.808c0.376-0.539,0.569-1.266,0.577-2.181
      c-0.214,0.24-0.522,0.464-0.924,0.673c-0.402,0.21-0.847,0.314-1.334,0.314c-0.804,0-1.477-0.267-2.02-0.802
      c-0.543-0.534-0.815-1.244-0.815-2.13c0-0.885,0.293-1.597,0.879-2.136c0.586-0.539,1.323-0.808,2.213-0.808
      c1.437,0,2.429,0.641,2.976,1.924c0.308,0.736,0.462,1.565,0.462,2.489s-0.098,1.693-0.295,2.309
      c-0.197,0.616-0.466,1.103-0.808,1.462c-0.667,0.701-1.486,1.052-2.457,1.052s-1.849-0.303-2.636-0.911l0.757-1.116
      c0.197,0.171,0.46,0.325,0.789,0.462C119.565,40.964,119.858,41.032,120.115,41.032z M120.391,37.697
      c0.517,0,0.949-0.143,1.296-0.43c0.346-0.286,0.519-0.658,0.519-1.116s-0.167-0.851-0.5-1.18c-0.334-0.329-0.75-0.494-1.251-0.494
      c-0.5,0-0.913,0.147-1.238,0.443c-0.325,0.295-0.488,0.673-0.488,1.135s0.147,0.851,0.443,1.167
      C119.467,37.539,119.873,37.697,120.391,37.697z"/>
    <path fill="#4D4D4D" d="M129.043,38.595v3.695h-1.437v-6.825h1.437v1.244c0.205-0.419,0.515-0.748,0.93-0.988
      c0.415-0.239,0.862-0.359,1.34-0.359c1.078,0,1.809,0.445,2.194,1.334c0.675-0.889,1.518-1.334,2.527-1.334
      c0.77,0,1.392,0.235,1.867,0.706c0.474,0.47,0.712,1.15,0.712,2.04v4.182h-1.437v-3.746c0-1.257-0.522-1.886-1.565-1.886
      c-0.488,0-0.913,0.156-1.276,0.468c-0.364,0.312-0.554,0.768-0.571,1.366v3.797h-1.437v-3.746c0-0.65-0.115-1.127-0.346-1.43
      c-0.231-0.303-0.595-0.455-1.09-0.455c-0.496,0-0.928,0.165-1.296,0.494C129.227,37.481,129.043,37.962,129.043,38.595z"/>
    <path fill="#4D4D4D" d="M141.345,34.105c-0.18-0.18-0.269-0.393-0.269-0.641c0-0.248,0.09-0.462,0.269-0.641
      c0.18-0.18,0.393-0.269,0.641-0.269c0.248,0,0.462,0.09,0.642,0.269c0.18,0.18,0.269,0.393,0.269,0.641
      c0,0.248-0.09,0.462-0.269,0.641c-0.18,0.18-0.394,0.269-0.642,0.269C141.738,34.375,141.524,34.285,141.345,34.105z
       M142.691,42.29h-1.437v-6.825h1.437V42.29z"/>
    <path fill="#4D4D4D" d="M146.848,38.595v3.695h-1.437v-6.825h1.437v1.244c0.231-0.419,0.549-0.748,0.956-0.988
      c0.406-0.239,0.845-0.359,1.315-0.359c0.77,0,1.392,0.235,1.867,0.706c0.474,0.47,0.712,1.15,0.712,2.04v4.182h-1.437v-3.746
      c0-1.257-0.522-1.886-1.565-1.886c-0.496,0-0.928,0.165-1.296,0.494C147.032,37.481,146.848,37.962,146.848,38.595z"/>
  </g>
</g>
</svg>
