<!-- Generator: Adobe Illustrator 18.1.1, SVG Export Plug-In  -->
<svg version="1.1"
   xmlns="http://www.w3.org/2000/svg" xmlns:xlink="http://www.w3.org/1999/xlink" xmlns:a="http://ns.adobe.com/AdobeSVGViewerExtensions/3.0/"
   x="0px" y="0px" width="68.939px" height="91.918px" viewBox="0 0 68.939 91.918" enable-background="new 0 0 68.939 91.918"
   xml:space="preserve">
<defs>
</defs>
<g>
  <g>
    <path fill="#333333" d="M59.693,10.053c6.163,6.704,9.246,15.021,9.246,24.954c0,14.362-9.577,32.556-28.725,54.577
      c-1.319,1.554-2.814,2.334-4.488,2.334h-0.179c-1.795,0-3.352-0.78-4.668-2.334c-3.352-3.829-5.268-6.042-5.745-6.643
      c-0.479-0.598-2.334-2.842-5.565-6.732c-3.231-3.888-5.327-6.581-6.283-8.079c-0.959-1.495-2.575-4.009-4.847-7.54
      c-2.275-3.529-3.832-6.432-4.668-8.707c-0.839-2.272-1.677-4.965-2.513-8.079C0.418,40.694,0,37.762,0,35.008
      c0-9.453,3.439-17.653,10.323-24.595C17.204,3.473,25.373,0,34.829,0C45.241,0,53.528,3.352,59.693,10.053z M63.194,35.008
      c0-8.017-2.424-14.901-7.271-20.646c-4.847-5.745-11.88-8.618-21.095-8.618c-7.899,0-14.721,2.903-20.466,8.707
      c-5.745,5.807-8.617,12.657-8.617,20.556c0,3.95,0.808,8.11,2.424,12.477c1.616,4.37,4.098,8.948,7.45,13.734
      c3.349,4.789,6.163,8.617,8.438,11.49c2.272,2.872,5.504,6.643,9.695,11.31l1.436,1.795c0.118,0,0.239,0.062,0.359,0.18
      l0.359-0.18C54.097,64.871,63.194,47.934,63.194,35.008z M51.884,34.559c0,4.729-1.705,8.797-5.116,12.208
      c-3.411,3.411-7.481,5.116-12.208,5.116c-4.729,0-8.769-1.706-12.118-5.116c-3.352-3.411-5.027-7.479-5.027-12.208
      c0-4.727,1.675-8.766,5.027-12.118c3.349-3.349,7.389-5.027,12.118-5.027c4.727,0,8.797,1.677,12.208,5.027
      C50.178,25.793,51.884,29.833,51.884,34.559z M45.959,34.559c0-3.17-1.139-5.894-3.411-8.168
      c-2.275-2.272-4.999-3.411-8.168-3.411c-3.173,0-5.865,1.139-8.079,3.411c-2.216,2.275-3.321,4.968-3.321,8.079
      c0,3.114,1.136,5.835,3.411,8.169c2.272,2.334,4.996,3.501,8.168,3.501c3.17,0,5.863-1.136,8.079-3.411
      C44.851,40.456,45.959,37.732,45.959,34.559z"/>
  </g>
</g>
</svg>
