<!-- Generator: Adobe Illustrator 18.1.1, SVG Export Plug-In  -->
<svg version="1.1"
   xmlns="http://www.w3.org/2000/svg" xmlns:xlink="http://www.w3.org/1999/xlink" xmlns:a="http://ns.adobe.com/AdobeSVGViewerExtensions/3.0/"
   x="0px" y="0px" width="64.528px" height="72.938px" viewBox="0 0 64.528 72.938" enable-background="new 0 0 64.528 72.938"
   xml:space="preserve">
<defs>
</defs>
<g>
  <g>
    <path fill="#333333" d="M31.681,64.7c0.189,0.381,0.236,0.784,0.143,1.212c-0.096,0.428-0.334,0.737-0.713,0.927l-0.713,0.428
      h-0.143l-10.551,5.418c-0.855,0.475-1.568,0.285-2.139-0.57l-0.143-0.57c-0.57-0.951-0.381-1.664,0.57-2.139l5.846-2.994
      c-0.096,0-0.192,0-0.285,0c-4.373-1.141-8.294-3.088-11.763-5.846c-3.471-2.756-6.202-6.131-8.198-10.123
      c-3.992-7.699-4.658-15.635-1.996-23.811C4.164,18.457,9.39,12.327,17.281,8.239c0.475-0.285,1.02-0.332,1.64-0.143
      c0.617,0.191,1.069,0.57,1.354,1.141c0.664,1.236,0.332,2.234-0.998,2.994c-6.75,3.422-11.264,8.65-13.545,15.684
      C3.544,34.95,4.164,41.793,7.585,48.446c1.711,3.328,4.063,6.202,7.058,8.626s6.296,4.112,9.909,5.062
      c0.189,0,0.57,0.049,1.141,0.143l-4.277-6.416c-0.57-1.141-0.428-1.947,0.428-2.424l0.57-0.285
      c0.949-0.475,1.711-0.285,2.281,0.57l6.559,10.266L31.681,64.7z M62.977,46.735c-2.615,8.27-7.771,14.4-15.47,18.393
      c-0.381,0.096-0.713,0.143-0.998,0.143c-0.951,0-1.617-0.379-1.996-1.141c-0.666-1.33-0.334-2.328,0.998-2.994
      C52.07,57.713,56.465,52.462,58.7,45.38c2.232-7.08,1.64-13.901-1.782-20.46c-3.614-7.129-9.221-11.691-16.824-13.688
      c-0.762-0.189-1.664-0.379-2.709-0.57l4.135,6.559c0.664,1.047,0.57,1.807-0.285,2.281l-0.57,0.428
      c-0.951,0.477-1.711,0.238-2.281-0.713L31.824,9.094V8.952l-0.428-0.713c-0.192-0.379-0.238-0.784-0.143-1.212
      c0.094-0.428,0.332-0.735,0.713-0.927l0.713-0.428h0.143l10.551-5.418c0.949-0.475,1.711-0.285,2.281,0.57l0.143,0.713
      c0.57,0.855,0.332,1.568-0.713,2.139L39.38,6.528c0.855,0.191,1.473,0.334,1.854,0.428c4.277,1.141,8.103,3.09,11.478,5.846
      c3.373,2.758,6.106,6.084,8.198,9.98C64.902,30.481,65.59,38.465,62.977,46.735z"/>
  </g>
</g>
</svg>
