<!-- Generator: Adobe Illustrator 18.1.1, SVG Export Plug-In  -->
<svg version="1.1"
   xmlns="http://www.w3.org/2000/svg" xmlns:xlink="http://www.w3.org/1999/xlink" xmlns:a="http://ns.adobe.com/AdobeSVGViewerExtensions/3.0/"
   x="0px" y="0px" width="203.113px" height="203.113px" viewBox="0 0 203.113 203.113" enable-background="new 0 0 203.113 203.113"
   xml:space="preserve">
<defs>
</defs>
<path fill="none" stroke="#CCCCCC" stroke-width="7" stroke-miterlimit="10" d="M197.113,101.557
  c0-28.345-12.341-53.807-31.944-71.307C148.275,15.167,125.986,6,101.557,6C48.782,6,6,48.782,6,101.557
  s42.782,95.557,95.557,95.557S197.113,154.331,197.113,101.557z"/>
<path fill="none" stroke="#37D389" stroke-width="12" stroke-linecap="round" stroke-linejoin="round" stroke-miterlimit="10" d="
  M54.947,18.119C25.742,34.468,6,65.707,6,101.557c0,52.774,42.782,95.557,95.557,95.557s95.557-42.782,95.557-95.557
  c0-28.345-12.341-53.807-31.944-71.307C148.275,15.167,125.986,6,101.557,6"/>
</svg>
