<!-- Generator: Adobe Illustrator 18.1.1, SVG Export Plug-In  -->
<svg version="1.1"
   xmlns="http://www.w3.org/2000/svg" xmlns:xlink="http://www.w3.org/1999/xlink" xmlns:a="http://ns.adobe.com/AdobeSVGViewerExtensions/3.0/"
   x="0px" y="0px" width="91.56px" height="78.632px" viewBox="0 0 91.56 78.632" enable-background="new 0 0 91.56 78.632"
   xml:space="preserve">
<defs>
</defs>
<g>
  <g>
    <path fill="#333333" d="M64.092,16.337L27.468,68.041H0v-5.745h24.416l36.803-51.704h20.825l-6.822-6.283
      c-1.198-1.077-1.318-2.034-0.359-2.872l0.539-0.718c0.957-0.957,1.975-0.957,3.052,0L90.123,11.31l0.718,0.718
      c0.477,0.48,0.718,0.988,0.718,1.526s-0.241,1.049-0.718,1.526l-0.718,0.718l-11.49,10.413c-1.077,0.959-2.095,0.959-3.052,0
      l-0.539-0.718c-0.959-0.957-0.839-1.975,0.359-3.052l6.822-6.104H64.092z M24.416,16.337H0v-5.745h27.468l12.028,16.337
      l-3.591,5.027L24.416,16.337z M90.842,63.732c0.477,0.479,0.718,0.987,0.718,1.526s-0.241,1.049-0.718,1.526l-0.718,0.718
      l-11.49,10.413c-1.077,0.957-2.095,0.957-3.052,0l-0.539-0.718c-0.959-0.959-0.839-1.975,0.359-3.052l6.822-6.104H61.219
      L50.268,51.344l3.59-5.027l10.233,15.978h17.953l-6.822-6.283c-1.198-1.077-1.318-2.034-0.359-2.873l0.539-0.718
      c0.957-0.957,1.975-0.957,3.052,0l11.669,10.592L90.842,63.732z"/>
  </g>
</g>
</svg>
